<mxfile host="app.diagrams.net" agent="Mozilla/5.0 (Windows NT 10.0; Win64; x64) AppleWebKit/537.36 (KHTML, like Gecko) Chrome/129.0.0.0 Safari/537.36" version="24.7.17">
  <diagram name="第 1 页" id="OqKrrbX-1eM24BtWMJbo">
    <mxGraphModel dx="1647" dy="2448" grid="1" gridSize="10" guides="1" tooltips="1" connect="1" arrows="1" fold="1" page="1" pageScale="1" pageWidth="900" pageHeight="1600" math="0" shadow="0">
      <root>
        <mxCell id="0" />
        <mxCell id="1" parent="0" />
        <mxCell id="96TmDrTL1l3ChU8e-Y0p-12" value="" style="whiteSpace=wrap;html=1;aspect=fixed;fillColor=#ffe6cc;strokeColor=#d79b00;" vertex="1" parent="1">
          <mxGeometry x="90" y="165" width="605" height="605" as="geometry" />
        </mxCell>
        <mxCell id="96TmDrTL1l3ChU8e-Y0p-5" style="edgeStyle=orthogonalEdgeStyle;rounded=0;orthogonalLoop=1;jettySize=auto;html=1;" edge="1" parent="1" source="96TmDrTL1l3ChU8e-Y0p-1" target="96TmDrTL1l3ChU8e-Y0p-4">
          <mxGeometry relative="1" as="geometry" />
        </mxCell>
        <mxCell id="96TmDrTL1l3ChU8e-Y0p-1" value="&lt;font style=&quot;font-size: 14px;&quot;&gt;设备注册/激活&lt;/font&gt;" style="rounded=0;whiteSpace=wrap;html=1;fillColor=#d5e8d4;strokeColor=#82b366;" vertex="1" parent="1">
          <mxGeometry x="300" y="255" width="120" height="60" as="geometry" />
        </mxCell>
        <mxCell id="96TmDrTL1l3ChU8e-Y0p-3" style="edgeStyle=orthogonalEdgeStyle;rounded=0;orthogonalLoop=1;jettySize=auto;html=1;entryX=0;entryY=0.5;entryDx=0;entryDy=0;" edge="1" parent="1" source="96TmDrTL1l3ChU8e-Y0p-2" target="96TmDrTL1l3ChU8e-Y0p-1">
          <mxGeometry relative="1" as="geometry" />
        </mxCell>
        <mxCell id="96TmDrTL1l3ChU8e-Y0p-2" value="用户" style="strokeWidth=2;html=1;shape=mxgraph.flowchart.terminator;whiteSpace=wrap;fillColor=#d5e8d4;strokeColor=#82b366;" vertex="1" parent="1">
          <mxGeometry x="120" y="260" width="90" height="50" as="geometry" />
        </mxCell>
        <mxCell id="96TmDrTL1l3ChU8e-Y0p-4" value="" style="image;aspect=fixed;perimeter=ellipsePerimeter;html=1;align=center;shadow=0;dashed=0;spacingTop=3;image=img/lib/active_directory/web_server.svg;" vertex="1" parent="1">
          <mxGeometry x="320" y="420" width="80" height="100" as="geometry" />
        </mxCell>
        <mxCell id="96TmDrTL1l3ChU8e-Y0p-6" value="&lt;font style=&quot;font-size: 14px;&quot;&gt;Server&lt;/font&gt;" style="text;html=1;align=center;verticalAlign=middle;whiteSpace=wrap;rounded=0;" vertex="1" parent="1">
          <mxGeometry x="330" y="510" width="60" height="30" as="geometry" />
        </mxCell>
        <mxCell id="96TmDrTL1l3ChU8e-Y0p-7" value="&lt;font style=&quot;font-size: 14px;&quot;&gt;Http请求--激活&lt;/font&gt;" style="text;html=1;align=center;verticalAlign=middle;resizable=0;points=[];autosize=1;strokeColor=none;fillColor=none;" vertex="1" parent="1">
          <mxGeometry x="360" y="350" width="110" height="30" as="geometry" />
        </mxCell>
        <mxCell id="96TmDrTL1l3ChU8e-Y0p-8" value="" style="shape=cylinder3;whiteSpace=wrap;html=1;boundedLbl=1;backgroundOutline=1;size=15;fillColor=#f5f5f5;fontColor=#333333;strokeColor=#666666;" vertex="1" parent="1">
          <mxGeometry x="330" y="640" width="60" height="80" as="geometry" />
        </mxCell>
        <mxCell id="96TmDrTL1l3ChU8e-Y0p-9" value="&lt;font style=&quot;font-size: 14px;&quot;&gt;DataBases&lt;/font&gt;" style="text;html=1;align=center;verticalAlign=middle;whiteSpace=wrap;rounded=0;" vertex="1" parent="1">
          <mxGeometry x="330" y="720" width="60" height="30" as="geometry" />
        </mxCell>
        <mxCell id="96TmDrTL1l3ChU8e-Y0p-11" value="&lt;font style=&quot;font-size: 14px;&quot;&gt;设备ID,IP,所在区域&lt;/font&gt;" style="text;html=1;align=center;verticalAlign=middle;resizable=0;points=[];autosize=1;strokeColor=none;fillColor=none;" vertex="1" parent="1">
          <mxGeometry x="512.5" y="630" width="140" height="30" as="geometry" />
        </mxCell>
        <mxCell id="96TmDrTL1l3ChU8e-Y0p-13" value="" style="image;aspect=fixed;html=1;points=[];align=center;fontSize=12;image=img/lib/azure2/app_services/API_Management_Services.svg;" vertex="1" parent="1">
          <mxGeometry x="550" y="450" width="65" height="60" as="geometry" />
        </mxCell>
        <mxCell id="96TmDrTL1l3ChU8e-Y0p-16" style="edgeStyle=orthogonalEdgeStyle;rounded=0;orthogonalLoop=1;jettySize=auto;html=1;" edge="1" parent="1" source="96TmDrTL1l3ChU8e-Y0p-14" target="96TmDrTL1l3ChU8e-Y0p-11">
          <mxGeometry relative="1" as="geometry" />
        </mxCell>
        <mxCell id="96TmDrTL1l3ChU8e-Y0p-14" value="&lt;font style=&quot;font-size: 14px;&quot;&gt;IP归属地查询API&lt;/font&gt;" style="text;html=1;align=center;verticalAlign=middle;resizable=0;points=[];autosize=1;strokeColor=none;fillColor=none;" vertex="1" parent="1">
          <mxGeometry x="517.5" y="510" width="130" height="30" as="geometry" />
        </mxCell>
        <mxCell id="96TmDrTL1l3ChU8e-Y0p-15" style="edgeStyle=orthogonalEdgeStyle;rounded=0;orthogonalLoop=1;jettySize=auto;html=1;entryX=-0.002;entryY=0.335;entryDx=0;entryDy=0;entryPerimeter=0;" edge="1" parent="1" source="96TmDrTL1l3ChU8e-Y0p-4" target="96TmDrTL1l3ChU8e-Y0p-13">
          <mxGeometry relative="1" as="geometry" />
        </mxCell>
        <mxCell id="96TmDrTL1l3ChU8e-Y0p-19" style="edgeStyle=orthogonalEdgeStyle;rounded=0;orthogonalLoop=1;jettySize=auto;html=1;entryX=1;entryY=0.5;entryDx=0;entryDy=0;entryPerimeter=0;" edge="1" parent="1" source="96TmDrTL1l3ChU8e-Y0p-11" target="96TmDrTL1l3ChU8e-Y0p-8">
          <mxGeometry relative="1" as="geometry" />
        </mxCell>
        <mxCell id="96TmDrTL1l3ChU8e-Y0p-20" value="IP" style="text;html=1;align=center;verticalAlign=middle;whiteSpace=wrap;rounded=0;" vertex="1" parent="1">
          <mxGeometry x="437.5" y="440" width="60" height="30" as="geometry" />
        </mxCell>
        <mxCell id="96TmDrTL1l3ChU8e-Y0p-22" value="&lt;font face=&quot;Georgia&quot; style=&quot;font-size: 18px;&quot;&gt;&lt;b&gt;设备激活流程&lt;/b&gt;&lt;/font&gt;" style="text;html=1;align=center;verticalAlign=middle;whiteSpace=wrap;rounded=0;" vertex="1" parent="1">
          <mxGeometry x="280" y="180" width="200" height="30" as="geometry" />
        </mxCell>
        <mxCell id="96TmDrTL1l3ChU8e-Y0p-23" value="" style="whiteSpace=wrap;html=1;aspect=fixed;fillColor=#ffe6cc;strokeColor=#d79b00;" vertex="1" parent="1">
          <mxGeometry x="90" y="-470" width="605" height="605" as="geometry" />
        </mxCell>
        <mxCell id="96TmDrTL1l3ChU8e-Y0p-24" value="&lt;font face=&quot;Georgia&quot;&gt;&lt;span style=&quot;font-size: 18px;&quot;&gt;&lt;b&gt;跨区域防护流程&lt;/b&gt;&lt;/span&gt;&lt;/font&gt;" style="text;html=1;align=center;verticalAlign=middle;whiteSpace=wrap;rounded=0;" vertex="1" parent="1">
          <mxGeometry x="280" y="-450" width="200" height="30" as="geometry" />
        </mxCell>
        <mxCell id="96TmDrTL1l3ChU8e-Y0p-25" value="" style="image;aspect=fixed;perimeter=ellipsePerimeter;html=1;align=center;shadow=0;dashed=0;spacingTop=3;image=img/lib/active_directory/web_server.svg;" vertex="1" parent="1">
          <mxGeometry x="340" y="-400" width="80" height="100" as="geometry" />
        </mxCell>
        <mxCell id="96TmDrTL1l3ChU8e-Y0p-33" style="edgeStyle=orthogonalEdgeStyle;rounded=0;orthogonalLoop=1;jettySize=auto;html=1;" edge="1" parent="1" source="96TmDrTL1l3ChU8e-Y0p-26" target="96TmDrTL1l3ChU8e-Y0p-32">
          <mxGeometry relative="1" as="geometry" />
        </mxCell>
        <mxCell id="96TmDrTL1l3ChU8e-Y0p-26" value="&lt;font style=&quot;font-size: 14px;&quot;&gt;Server&lt;/font&gt;" style="text;html=1;align=center;verticalAlign=middle;whiteSpace=wrap;rounded=0;" vertex="1" parent="1">
          <mxGeometry x="340" y="-310" width="60" height="30" as="geometry" />
        </mxCell>
        <mxCell id="96TmDrTL1l3ChU8e-Y0p-32" value="&lt;font style=&quot;font-size: 14px;&quot;&gt;&lt;b&gt;检查IP区域合规接口&lt;/b&gt;&lt;/font&gt;" style="rounded=0;whiteSpace=wrap;html=1;" vertex="1" parent="1">
          <mxGeometry x="290" y="-230" width="160" height="40" as="geometry" />
        </mxCell>
        <mxCell id="96TmDrTL1l3ChU8e-Y0p-34" value="&lt;font style=&quot;font-size: 14px;&quot;&gt;定时触发&lt;/font&gt;" style="text;html=1;align=center;verticalAlign=middle;whiteSpace=wrap;rounded=0;" vertex="1" parent="1">
          <mxGeometry x="377.5" y="-280" width="60" height="30" as="geometry" />
        </mxCell>
        <mxCell id="96TmDrTL1l3ChU8e-Y0p-35" value="" style="sketch=0;aspect=fixed;pointerEvents=1;shadow=0;dashed=0;html=1;strokeColor=none;labelPosition=center;verticalLabelPosition=bottom;verticalAlign=top;align=center;fillColor=#00188D;shape=mxgraph.mscae.enterprise.device" vertex="1" parent="1">
          <mxGeometry x="119.99999999999997" y="-170" width="57.69" height="30" as="geometry" />
        </mxCell>
        <mxCell id="96TmDrTL1l3ChU8e-Y0p-36" value="" style="shape=cylinder3;whiteSpace=wrap;html=1;boundedLbl=1;backgroundOutline=1;size=15;" vertex="1" parent="1">
          <mxGeometry x="360" y="30" width="50" height="60" as="geometry" />
        </mxCell>
        <mxCell id="96TmDrTL1l3ChU8e-Y0p-37" value="&lt;font style=&quot;font-size: 14px;&quot;&gt;Device&lt;/font&gt;" style="text;html=1;align=center;verticalAlign=middle;whiteSpace=wrap;rounded=0;" vertex="1" parent="1">
          <mxGeometry x="117.69" y="-140" width="60" height="30" as="geometry" />
        </mxCell>
        <mxCell id="96TmDrTL1l3ChU8e-Y0p-39" value="&lt;font style=&quot;font-size: 14px;&quot;&gt;DataBases&lt;/font&gt;" style="text;html=1;align=center;verticalAlign=middle;whiteSpace=wrap;rounded=0;" vertex="1" parent="1">
          <mxGeometry x="355" y="90" width="60" height="30" as="geometry" />
        </mxCell>
      </root>
    </mxGraphModel>
  </diagram>
</mxfile>
